<svg xmlns="http://www.w3.org/2000/svg" width="153.547" height="214" viewBox="0 0 153.547 214"><defs><style>.a{isolation:isolate;}.b{fill:#f3971d;}.c{fill:#004027;}.d{fill:#fff;}</style></defs><g class="a"><path class="b" d="M0,31.08C1.782,28.8,18.411,7.028,24.251,0h.594C32.07,8.414,48.2,27.913,50.778,30.586L38.9,36.03c-1.782-2.277-4.85-6.335-5.444-7.127l-18.114.792c-.495.693-2.673,4.256-3.959,6.434Zm29.4-8.71c-1.683-2.673-3.959-5.939-5.048-7.82-1.485,2.178-3.563,5.642-5.147,8.216ZM97,34.545c.1-1.98.2-13.165.2-16.431V13.066c0-1.089-.2-10.591-.2-11.284,11.482,0,18.807.2,23.756,1.188,6.038,1.188,11.284,3.86,11.284,9.106,0,6.038-7.226,12.571-21.776,14.352v1.287c0,.891,0,5.939.1,6.929H97ZM110.266,19.8c3.464-.4,8.216-2.772,8.216-6.533,0-2.574-1.782-4.751-8.216-5.048ZM86.511,45.334c-1.188-2.277-3.167-5.939-3.662-6.632L64.834,37.118c-.594.792-3.86,4.751-5.741,6.929l-11.68-5.939c2.673-2.475,19.7-21.281,27.319-29.3h.594C80.869,16.134,96.409,38.6,98.092,40.979Zm-7.226-13.66C77.8,29,75.92,25.537,74.534,23.261c-1.188,1.881-3.563,5.048-5.444,7.523Z"/><path class="c" d="M86.678,45.054c.2.4,0,1.188,0,1.782a.345.345,0,0,0-.495.1c.1.594-.2,1.188-.1,1.98-.3,0-.2.4-.1.4.1.3-.4.693-.2.99a15.4,15.4,0,0,1,.1,1.98l.1.792h-.1c.1.3-.1.99.1,1.485a2.673,2.673,0,0,0,0,.891c.1.4,0,.99.1,1.386h.1c-.3.693.3,1.386,0,1.98.2.4-.1.891.2,1.287-.4.4.2.693-.1.99-.1.2.2.4,0,.594-.1.4.4.792.1,1.188,0,.4.495.99.1,1.287.495.495-.4.99.1,1.287-.1,1.584.495,2.475.3,4.058l-.2.1c0,.3.4,0,.4.4-.3.495,0,.792.1,1.287-.4.99.3,2.079,0,3.167a1.423,1.423,0,0,1,.2,1.386,2.465,2.465,0,0,1,.2,1.881c.495.594,0,1.188.3,1.683-.1,0-.1,0-.1.1h.1c-.1.4.2.891,0,1.386a6.316,6.316,0,0,1,.1,2.376,1.942,1.942,0,0,1,.1,1.485c.2.594.2,1.089.4,1.584.1.3-.2.3-.1.4a3.244,3.244,0,0,0,.3,1.98c-.4.1.1.3-.1.594a4.252,4.252,0,0,0,0,1.584c-.4.3,0,.693-.1,1.089h.1c-.495.594.3,1.089-.1,1.782.3.2-.1.3,0,.594a4.177,4.177,0,0,0,.3,1.188c-.4.3,0,.594-.1.99.1.3-.2.2,0,.4-.3.1.4.1,0,.4.2,1.386,0,2.376.594,3.662-.2,0-.1.3-.1.4a1.779,1.779,0,0,0,.4.891c0,.3,0,.594.3.693.1,0,.1,0,.2.1.2.1.3.4.495.594.1.594.693.594.693,1.089.3.594.891.792.99,1.485.693.891,1.287,1.782,2.079,2.673l-.1.1c.2.1.2.3.4.4.4.2.3.792.891.891,0,.891.99.99,1.188,1.782.3.495.99.594.99,1.287.2.2.3.594.495.594v.2c.4,0,.594.693,1.089.99.2.1.3.495.594.495.1.4.495.4.594.693.594.4.693.99,1.386,1.188v.3a12.041,12.041,0,0,0,1.683,1.485c.3-.1.1.2.3.3.3.3.99.4.891.99l.594.4h-.1l.3.4h-.1a.6.6,0,0,0,.4.1c-.1.594.792.4.594,1.089.792.3,1.188,1.386,2.079,1.782-.1.495.792.3.594.891.3.2.594.4.594.693h.1c0,.3.4.3.4.594.1.3.495.4.495.594.792,0,.4.891.99,1.089,0,.3.4.4.594.693.4.1.4.495.594.891.495.1.3.693.891.693a2.016,2.016,0,0,0,.891,1.584,13.249,13.249,0,0,1,.594,1.188l.3.1c0-.1.1-.1.3-.1-.2.495.4.4.4.891,0,.594.693.3.99.693a2.336,2.336,0,0,0,1.584.693c.3.495.99-.2,1.287.4.1.1.3-.1.4.1.4-.2,1.089,0,1.386-.1.3.4.495-.2.792.1.792-.3,2.079-.3,2.871-.693.495,0,.4-.495.891-.4.3-.2.3-.495.693-.495.3.3.594-.4,1.089-.4.2-.693.99-.4,1.188-1.188a2.071,2.071,0,0,0,.594-.4c.594-.693,1.188-.99,1.386-1.782a2.27,2.27,0,0,0,1.485-1.782c.99-.1,0-1.584,1.287-1.188.4-.594-.1-1.584.693-1.782.3-.594.4-1.485,1.089-1.98l.3-.594c.4-.4.3-.99.693-1.188.4-.4,0-1.386.4-1.782-.3-.495.4-.693.1-1.287.4-.3.1-.495.1-.99h-.1c.2-1.089-.4-2.079-.1-3.266-.2-.891-.2-1.485-.4-2.277-.1-.4-.3-.891-.4-1.188.2-.2-.1-.4,0-.891.1-.1,0-.495-.1-.693-.1-.99-.594-1.782-.495-2.969h-.1c-.3-1.089.1-2.277-.693-3.167.1-.4-.1-.693,0-1.089-.3,0,0-.594-.3-.594.3-.594-.693-1.089-.2-1.584-.594-.3-.3-1.089-.693-1.584-.1-.3.1-.693-.1-.891l-.3-1.584h-.4c.1-.792-.2-1.089-.2-1.881-.3-.693,0-1.386-.1-2.079-.1,0-.2-.2-.1-.4.3-.2-.1-.4.2-.594-.1-.891.693-1.584.693-2.376l.2-.3h-.1v-.4a1.137,1.137,0,0,0,.594-1.089c.3-.2.1-.792.495-.792-.1-.1.3-.693.1-.891.2-.1.1-.4.2-.594.495,0,.3-.594.594-.792.1-.1,0-.3,0-.4a.724.724,0,0,0,.4-.792c.4-.2.2-.693.594-.891-.1-.594.4-.891.3-1.287.2-.1.2-.1.4,0,.495-.2.3-.891.891-.891v-.2c.3,0,.3-.4.594-.495.3-.3.495-.594.792-.594,0-.3.4-.2.4-.594a8.84,8.84,0,0,1,2.574-1.188v-.1h.2c.2-.1.3-.3.594-.3.594,0,1.386.3,1.881-.2.594.495,1.584-.1,2.079.3a3.519,3.519,0,0,1,2.87,1.386l.4.1c.693.99,1.485,1.287,2.178,2.277,0,.3.3.594.2.693.693.495.1,1.584.693,2.079.495.891-.4,2.079.3,2.771,0,.1.1.594-.1.693-.1.4.2.891-.3,1.287A2.112,2.112,0,0,0,152.9,89a17.656,17.656,0,0,0-2.574,2.178v.1c-.2.1-.4.4-.693.4a3.3,3.3,0,0,1-.594.3c-.495.594-1.287.594-1.782,1.089-.3-.3-.594.2-.891-.1-.693.495-1.584,0-2.079,0-.1-.3-.4-.4-.891-.4-.1-.4-.99-.495-1.386-.792-.693-.1-.2-1.089-.891-1.188.495-.3-.3-.4-.2-.792-.4-.4-.2-1.188-.2-1.782h.1c.2-.792.2-2.079,1.089-2.673l.792-.99a13.436,13.436,0,0,1,2.673-.4,1.084,1.084,0,0,0,.792,0,1.652,1.652,0,0,1,1.188,1.089c0,1.386.2,3.068-1.089,3.86-.495.1-.99.4-1.386,0-.2-.3-.495-.891-.4-1.188-.1,0-.1-.1-.3-.2-.3.1-.495.4-.792.1-.4.3-.2.891-.1,1.287.3.2.3.693.594.891.4.2.693.594,1.089.4a1.987,1.987,0,0,0,1.683.1c0-.2.3,0,.495-.2,0-.693,1.089-.3,1.089-.99.3,0,.2-.594.495-.693.2-.1-.1-.99.3-1.089-.2-.594.1-1.188,0-1.584.2-.4-.1-.792-.2-1.287h-.1c.1-.594-.3-1.089-.495-1.584.4-.3-.2-.3-.3-.594-.594-.2-.594-.792-1.188-.891-.1-.4-.792-.495-1.089-.693a1.966,1.966,0,0,0-1.089-.1l-.2.2c-.1-.495-.4.1-.693-.1a10.263,10.263,0,0,1-.99.4v-.1c-.4-.1-.792.2-1.089.3v.2c-.3,0-.2.3-.495.3-.4.3-.2.891-.693.99a5.612,5.612,0,0,1-.792,1.287c-.1,0-.3,0-.3.2v.2c-.4.1-.495.594-.693.891a3.57,3.57,0,0,0-.3,2.079,11.129,11.129,0,0,0-.2,1.98c-.3.3.2.4-.1.693.3.3-.1.792.3.99-.594.693.1,1.584-.4,2.376a3.771,3.771,0,0,0,.3.99c-.2.495.495.891.495,1.584h.1c-.2.891.3,1.386.594,1.98.3.1,0,.693.3.792a6.032,6.032,0,0,1,.3,1.683c.3.1,0,.4.3.594.2.1-.1.495.2.4,0,.594.4,1.188.4,1.881a8.381,8.381,0,0,1,.4,1.683c.2.3,0,.891.3,1.089a11.6,11.6,0,0,1,.4,2.673c0,.1.1,0,.2,0a16.248,16.248,0,0,1,.2,2.277c.1.2.4.3.3.594-.3,0-.1.4-.1.594h.1c-.4.693,0,1.782-.1,2.277h.1v2.969c.2,0,.2.495,0,.594.2.2-.2.4.1.792-.2.1-.1.4-.1.594.1.3-.1.693.1.99h.1v.693h-.1a.631.631,0,0,0,0,.594h.1a14.473,14.473,0,0,0-.792,4.256c-.3.3-.4.99-.495,1.188h-.1c-.2.4.1,1.089-.4,1.287a1.582,1.582,0,0,1-.495.99c.3.2.1.594,0,.693a10.49,10.49,0,0,0-1.089,2.079h.1c-.4.891-1.089,1.782-1.584,2.673.1.4-.3.2-.3.594s-.495.99-.792,1.485v.2c-.3.2-.495.594-.792.792-.495.594-.99,1.584-1.881,1.683-.3.2-.4.594-.693.693-.495.891-1.683,1.386-2.376,2.277-1.089.1-.99,1.188-2.079,1.386a4.769,4.769,0,0,1-3.464,1.584c-.594.4-1.584.2-2.277.594-.4-.1-.495.2-.891.3-1.386-.3-2.079.693-3.563.4a2.1,2.1,0,0,1-1.881-.2c-.3.3-.2.99-.4,1.287v.99c-.3.4-.1,1.287-.1,1.584-.1,0-.1.4,0,.594h.1c-.495,1.782-.2,3.86-.4,5.741v.891c-.3.3.2.3,0,.693-.4.693-.1,1.782-.4,2.673.3.594-.4.693-.2,1.287a2.488,2.488,0,0,0-.2,1.485,4.177,4.177,0,0,1-.3,1.188c.1.4-.3.792-.2,1.188h-.1a4.1,4.1,0,0,1-.3,1.584c-.2.4.1.99-.3,1.287-.1.594.3,1.287-.1,1.683.3,1.089-.594,1.386,0,2.079-.1.4.1.693.3,1.089a3.366,3.366,0,0,0,.99-.1c.1.2.495.3.792.3,1.683-.594,2.772.693,4.553.3,2.277.891,4.256.891,5.939,2.475.693.2,1.188.891,2.079.99.891.594,2.277.594,3.068,1.287a3.441,3.441,0,0,1,3.068,2.277c0,.1-.1.4.2.495a7.132,7.132,0,0,0,1.089,3.365c.2.693,0,1.98.891,2.079.3.693,1.386.594,1.782,1.188a2.68,2.68,0,0,1,1.089.99l-.3.594a8.119,8.119,0,0,0-2.178.2,4.21,4.21,0,0,0-.2,1.089h.1c0,1.089.891,1.485,1.089,2.376a1.914,1.914,0,0,1,.495.891c.693-.792,1.584.3,2.574-.1.792.4,1.584.1,2.376.3-.1.3.3.4,0,.495.495,0,.1.693.4.891-.4.693-1.188,1.683-.792,2.178-.2.3,0,.891-.2,1.188l-.792.792c-.2.495-.693.495-.693,1.089-1.089-.1-1.683,1.683-2.673.4-.1-.2-.495-.3-.594-.495a22.675,22.675,0,0,1-2.277-2.079l-.99-.891c-.2-.594-.693-.891-.693-1.584-.594-.4-.4-1.188-.99-1.485-.1-1.188-1.188-1.782-1.584-2.772a2.861,2.861,0,0,0-.4-1.386c-.594-.2,0-1.089-.495-1.287.1-.99-.693-1.089-.693-1.98-.792-1.386-2.277-2.079-3.464-2.87-.4.2-.4-.3-.693-.3a16.512,16.512,0,0,0-3.068-.495c-.1-.1-.1-.2-.3-.3-.4.3-.594-.2-1.089,0v-.1a11.2,11.2,0,0,1-1.485-.4c-.3.1-.792-.4-1.188-.1v-.1c-.792-.4-1.782-.495-2.673-.891-.3.1-.3-.2-.594-.2-1.089.1-1.683-.792-2.673-.495-1.98-.891-3.959-.99-6.137-1.386-.891-.4-1.188-1.287-1.782-1.98.1-.4-.3-.4-.3-.693a27.873,27.873,0,0,1-.693-3.068c-.594-1.089-.3-2.277-.594-3.662.2-.891-.3-1.782-.4-2.87.3-.792,0-1.287-.2-2.079.495-.594-.495-.792,0-1.287-.1-.693-.495-1.386-.3-1.881.2-.891-.792-1.287-.2-1.98a24.192,24.192,0,0,0,.1-3.761l.1-.1a12.518,12.518,0,0,1,.1-2.772c-.4-.594.2-1.287-.1-1.98a3.513,3.513,0,0,0,.1-1.485c-.1-.3.1-.3-.2-.594-.1-.693.792-1.188.2-1.782-.1-.1,0-.4-.2-.495a7.224,7.224,0,0,0-1.584,2.969c-.3.2-.2.594-.594.891,0,.99-.594,1.584-.792,2.376-.1.4.2,1.089-.3,1.287a18.467,18.467,0,0,1-.693,2.178c-.495.1.1.4-.1.693,0,.4-.594.891-.495,1.188.2.792-.594,1.386-.594,2.277h-.2l-.1,1.089c-.4,1.683-1.287,3.266-1.683,4.949a6.555,6.555,0,0,0-.99,2.673,1.8,1.8,0,0,0-.594,1.386c-.594,1.683-1.485,2.871-1.584,4.85.4.4.99.594,1.386.99.3.1.2.792.693.792.594.495.99,1.188,1.683,1.683a14.858,14.858,0,0,0,2.376,2.673,22.4,22.4,0,0,1,1.287,1.98l.4.2h-.1c.4.792,1.188.99,1.386,1.881.594.4.792,1.287,1.485,1.584.4.693.891,1.188,1.287,1.881.1.3.594.4.693.693.594.594.495,1.386.99,1.98-.1.3.2.3.2.495h.1c-.2.4.3.3.1.693.4.3.3.99.4,1.287a18.848,18.848,0,0,0-.1,3.365c-.594.3-.1,1.287-.693,1.584-.3,1.485-1.188,2.376-1.287,3.959-.2.693-.4,1.188-.594,1.98-.3.3-.4-.1-.594-.2-.1-.3-.495-.495-.4-.891a5.781,5.781,0,0,0-.4-1.782l-.693-.3c-1.089.594-.2,2.277-1.287,2.87,0,.693-.4,1.683-.495,2.475a9.514,9.514,0,0,1-1.089,2.771c-.3-.1-.1.3-.2.4-.495-.1-.2.495-.594.693,0,.4-.792,0-.693.495-.1.1-.4,0-.4.3v.1c0-.2-.3-.1-.4-.1-.4.3-1.089.2-1.287.693v-.2l-.2.2-.3.1c.3,0-.1.1,0,.2l-.693-.594c-.1-.792-.495-1.089-.693-1.782,0-.4-1.188-.693-.594-1.188,0-.495.4-.693.495-.99.4,0,0-.495.3-.594.495-.891,1.089-1.881,1.584-2.87.594-.3.1-1.287.792-1.386.2-1.089.891-2.079.99-3.167.594-.3,0-1.188.594-1.485.2-.99.693-1.782.891-2.87l.3-.3c-.1-.792.594-1.683-.2-2.178l.1-.1v-.1h0a16.8,16.8,0,0,0-2.574-4.949h-.1a4.6,4.6,0,0,0-1.782-1.584c-.693-1.089-1.98-1.287-2.772-2.178-.693-.3-.99-.99-1.782-.99,0-.1,0-.1-.1-.1h-.1c-.2-.594-1.089-.693-1.386-.792l.1-.2c-.1-.1-.4-.4-.594-.3-1.485-1.485-4.058-2.772-4.949-4.85a1.509,1.509,0,0,1-.594-1.089c.1-1.287,0-2.673.1-3.761a39.45,39.45,0,0,1,1.188-5.741,26.886,26.886,0,0,0,1.089-3.365c.3-.693,0-1.089.594-1.683,0-.2,0-.4.1-.4.3-1.881,1.089-3.464,1.386-5.345.4-.594.2-1.386.594-1.98,0-.2,0-.3.2-.4v.1a4.252,4.252,0,0,0,0-1.584v-.1a.1.1,0,0,0,.1.1c.3-.4.3-.99.594-1.584a4.238,4.238,0,0,1,.594-2.178c.1-.693,0-1.683.792-2.079a.206.206,0,0,1,0-.4c.1,0,.1-.1.2-.1-.4-.3,0-.594.1-.792.2,0,0-.3.1-.495.3-.2.1-.594.3-.891h.1c.1-.2-.2-.3,0-.495a7.71,7.71,0,0,0,.495-2.277c.3-.4,0-.891-.1-1.188-.2-1.188-1.188-1.98-1.584-3.167-.693-1.089-1.089-2.277-2.178-3.068-1.584-.891-2.87-2.178-4.553-3.167-.594-.4-1.485-.1-2.178-.495-.2-.1-.1.1-.3-.2a2.177,2.177,0,0,1-1.287-.4,7.419,7.419,0,0,0-1.584-.495c-.891-.3-2.376-.3-3.266-.99a3.47,3.47,0,0,1-2.277-.693h-.3c-.693-.693-1.98-.99-2.673-1.485-.495.1-.792-.495-1.287-.495-.2-.4-.693-.4-.99-.693-.594-.495-1.386-.693-1.782-1.287-.4-.3-.693,0-.891.2-.1.4-.4.4-.693.693-.891,0-.495,1.089-1.188,1.089-.1.495-.594.891-.99,1.485a7.663,7.663,0,0,1-.693,1.584c-.3.4-.3,1.089-.594,1.386a6.13,6.13,0,0,1-.792,2.376c0,.495-.3.792-.4,1.386a7.554,7.554,0,0,0-.594,2.079h-.1c-.693,1.881-1.782,3.068-2.376,5.048-.2,0-.1.3-.1.4-.2.2-.4.594-.594.792-.1,1.386-1.386,1.98-.792,3.563.2.2-.2.693.1.99-.594.495.4.594,0,1.089l.1.1h-.1a13.891,13.891,0,0,0-.1,3.563h-.1c.4.594-.495,1.089.2,1.584a7.353,7.353,0,0,0-.4,3.365l-.2.1a3.938,3.938,0,0,1,0,1.089l-.1.2a6.31,6.31,0,0,1-.4,2.376.1.1,0,0,0,.1.1c-.2.3-.1.792-.1,1.188h-.1c0,.99-.594,1.98-.3,2.574a4.887,4.887,0,0,0-.3,2.673c.4.3.891.3.891.891.3.4.891.594.891,1.089.1.1.1.594.4.693,0,.4.4.693.3,1.089a20.553,20.553,0,0,0,.1,3.464h.1v.594h-.1c0,.2.3.3,0,.4.4.3,0,.4.1.693-.594.2-.792.693-1.386.891-.1-.3-.693-.3-.693-.693a3.972,3.972,0,0,1,.3-1.485v-.3c.3,0,.1-.3.2-.4-.1-.4-.495-.693-.693-1.188-.3-.2-.792,0-.99-.1-.2.1-.1.4-.1.594-.3-.1-.2.2-.4.3,0,0,0,.1.1,0-.3.2,0,.693,0,.99.3.792-.495,1.485,0,2.079a1.478,1.478,0,0,0,.3.693,1.949,1.949,0,0,0,.4.792c.3-.2.1.4.4.495.3.2.3.693.792.495.3-.1.495.594.792.1.1-.4.693-.3.792-.792.594-.2.4-.594.99-.99.3-.3,0-.594.4-.891.4.4.693,0,.99.594.2,0,.1.3.2.4-.1,0-.2,0-.2.1,0,.3.2-.1.3.1-.3.2-.1.594-.1.891h-.1c.4.594-.693.99-.3,1.782h-.1c-.1.2.2.2.1.495.3-.1.3.1.4.2l.3.1a.1.1,0,0,0-.1.1l.4.1-.1.2c.1.1.495.3.3.594-1.089.891-1.584,2.079-2.574,3.068-.594.4-.594,1.287-.693,2.079h-.1c.3.2-.3.4-.3.693-.4.3-.4,0-.693.2-.3,0-.891.693-1.188,0,0,.2-.2.1-.4.1,0-.2-.3-.1-.4-.1a2.583,2.583,0,0,0-1.584-1.089c-.495-.4-1.089-1.188-1.584-1.683.1-.4-.3-.2-.3-.4l-.2-.495h.1c-.2-.2.1-.792-.2-.891a14.015,14.015,0,0,0-.4-1.98c-.4-.4-.1-.891-.495-1.287-.2-.594-.1-1.188-.594-1.584-.594-.495.495-1.089-.4-1.386-.3-.594.495-1.386.2-2.079h.1c-.3,0-.1-.693,0-.792h-.1a.489.489,0,0,0,.1-.693c.4-.693-.693-1.089-.2-1.881-.1-.4-.2-.99-.3-1.386l-.2-.1c.3,0,.1-.3.2-.495H46a.316.316,0,0,1-.3-.3v-.594h.2c.1-.4-.3-.693-.3-1.089.495-.4.1-.891.4-1.485-.2-.792,0-2.574-.2-3.266.1,0,.1-.1.1-.3,0-.1-.1,0-.2,0-.1-1.089.1-2.277,0-3.464.3,0,0-.495.3-.594.1-.3-.3-.3,0-.495.1-.891-.2-1.584.2-2.277-.3-.3.1-.891-.1-1.287.594-.693,0-2.079.495-2.87a22.02,22.02,0,0,0,.1-3.662c.4-.4,0-1.287.3-1.782a11.978,11.978,0,0,1,.1-1.881c-.3-.4.2-.792.1-1.287.3,0,.1-.4.3-.594a2.741,2.741,0,0,1-.1-1.287,5.608,5.608,0,0,0,.3-1.485l-.1-2.376c.594-.1,0-.891.495-1.089.1-.4-.1-.693.2-.99-.1-.1-.2-.2-.1-.4h.1c.495-.99.594-1.98,1.089-2.87-.2-.792.495-1.188.4-1.98.3-.2.4-.792.495-1.287,0-.2,0-.3.1-.4.1-.891.693-1.584.693-2.475.2-.3.2-.693.4-.891,0-.2-.1-.495.1-.594a4.708,4.708,0,0,1,.495-1.782c-.3-.3.3-1.188.4-1.683.2-.4.2-1.089.495-1.386v-.1c-.1-.1-.2-.2-.1-.4.495-.792.594-2.079,1.188-3.167.1-.495.3-1.089.4-1.485.693-.693.4-2.079,1.089-2.772-.2-.792.693-1.287.792-2.079.3-.4.891-.594.891-1.287a3.387,3.387,0,0,0-.891-1.782c0-.3-.3-.594-.3-.792a3.8,3.8,0,0,1-3.068-2.969v-.495a2.789,2.789,0,0,1-.4-1.089l-.2-.3.1-.1a4.137,4.137,0,0,1-.4-.99,8.4,8.4,0,0,0-1.089-2.574c-.4-.2-.2-.792-.1-1.089.2-.2.1-.495.4-.693l.3-.1v.1c.792-.495,1.485.4,1.881-.792a3.14,3.14,0,0,0,.891-2.178c.4-.3.3-1.089.693-1.584v-.3c.3,0,0-.3.2-.495.4-.693.891-1.386,1.287-2.178h-.594c.4-.495.495-1.089.99-1.485-.2-.594.693-.1.594-.594l.1.1c.1-.3.4-.2.594-.4.4.1.594-.594.99-.3.2-.3.891-.3,1.188-.594.4,0,.495-.3.99-.3.4-.594.495.2.891-.4.2-.3.594-.2.693-.4l.495-.1v.1c.495-.4,1.584-.495,2.376-1.188.2.2.4-.1.594-.1v-.1c1.287-.1,2.475-1.089,3.86-.4,0-.2.3-.1.495-.1.4.3.99-.1,1.287.4.693.1.891.4,1.584.594.495.693,1.386.792,2.178,1.188,0-.2.3-.1.4-.1,0,.3.3.2.3.495.1-.2.2-.495.3-.693.1-.891.3-1.485.495-2.574-.1-1.287.594-2.277.2-3.563.1-1.188.4-2.673.4-4.157.2-.99.2-2.969.495-4.355h.1c-.1-.2.1-.891,0-1.287.2-.1-.3-.3,0-.495v-.594h.1a23.243,23.243,0,0,1,.4-3.464c.1-1.089.4-3.563.594-5.246V57.229h.1c.2-1.188.3-2.772.4-4.058.3-.3-.2-.4.2-.792a15.881,15.881,0,0,1,.4-4.256,4.7,4.7,0,0,1,0-1.188c.594-1.287-.1-3.365,0-4.652.1-.3.693-.594.594-.891-.2-1.188-.99-1.98-1.287-3.068.1-.693-.495-1.485,0-2.178-.792-.891-.3-2.376-.891-3.365-.1-.594.2-.99.2-1.584a.662.662,0,0,1,.99-.2c.4.3,1.287-.495,1.287.4.594.1.4,1.188,1.188.99.2.594-.4.4-.1.99,0,0,.4,1.881.4,2.277a18.366,18.366,0,0,1,.1,2.178l.2.99c2.277,4.058,3.365,6.236,3.365,6.236" transform="translate(-0.464 -0.314)"/><path class="d" d="M81.47,33.69c.594.495-.3,1.683.495,2.178,0,.1,0,.3.1.3.2.891.891,1.584.594,2.574l-.3-.1-.1.1c-.3-.3-.594.2-.99.2.1-.594-.495-.99-.2-1.584-.594-.891-.4-2.771-.693-3.86l-.2-.1a.771.771,0,0,0,.3-.693c0,.495,1.089.594.99.99m.4,31.08c.495.495-.2.4,0,1.089.3.4-.2.693,0,1.188.1.3.1.594.2.891h-.1c-.2.693.594,2.574.1,3.86a8.437,8.437,0,0,1,.3,2.277c.4,1.386.792,2.772,1.089,4.355-.2.99.495,2.475.594,3.86.1.4.495.792.3,1.287.594,1.089.3,2.376.594,3.563-.4,1.584.3,3.464-.594,4.652a.514.514,0,0,1-.4-.2c-.2,0-.792.1-.891.1.4-.693,0-1.287.4-1.881-.4-.4,0-.99-.3-1.485a3.3,3.3,0,0,1,0-.99c-.495-.2-.3-.891-.99-.99a3.1,3.1,0,0,0-1.089.792c-.495.2-1.089-.2-1.386.1h-.3c.2-.4-.3-.2-.3-.495-.3-.2,0-.792-.4-.792.2,0,.1-.3.1-.4-.4,0,0-.495-.2-.693.594-.594-.3-1.287.2-1.98v-.891h.1c-.2-.891.495-2.178.3-3.167,0-.594.3-.792.2-1.386-.1-.1.2-.4,0-.594a.424.424,0,0,0,.1-.693,10.009,10.009,0,0,0,.4-2.277c0-.4.3-.891.2-1.287.3-.3.2-.99.4-1.386a1.868,1.868,0,0,1,.594-1.881c-.3-.891.2-1.188-.1-2.079-.1-.2.4-.594.1-.891,0-.2,0-.3-.1-.4.1-.3,0-.99.3-1.386v-.3a2.177,2.177,0,0,1,.594.495" transform="translate(-0.8 -0.333)"/><path class="d" d="M81.945,90.982c.792,3.068-.594,5.345-.594,8.315.1.594-.4.792-.2,1.386h-.1c.1,1.485-.891,2.87-.99,4.553-.495.594.1,1.089-.693,1.584a8.08,8.08,0,0,1-1.287,3.266,4.624,4.624,0,0,1-.3,1.683c-.594.3-.2.594-.3,1.188-.99.693-.1,1.683-1.287,2.178v.1l-.891.891c-.4.4-.693,1.089-1.287,1.287v.3c-.1-.1-.4,0-.3.2-.1.2-.3.4-.4.594v.1a4.61,4.61,0,0,0-1.98.594c.1.2-.4-.1-.594.2v-.1c-.4-.1-.99.594-1.188.1-.891,0-1.188-.594-2.079-.693-.891-.4-1.089-.594-2.079-.99-.1-.3-.594-.3-.693-.495-.99-.792-1.782-1.782-2.87-2.771-.2-.4-.594-.693-.693-1.089a1.683,1.683,0,0,0-.594-.99c-.4,0,.1-.693-.4-.594.1-.2-.1-.2-.2-.3a4.57,4.57,0,0,0-.891-1.485.364.364,0,0,0-.1-.3,11.306,11.306,0,0,1-.891-2.574c0-.3-.495-.594-.4-.99-.4-.2.1-.4-.4-.594.2-.594-.3-1.386-.1-2.079.4.1.4.693.594,1.089a.6.6,0,0,0,.3.693,32.36,32.36,0,0,0,1.386,3.266c.594.495.4,1.386,1.188,1.683,0,.693.693.891.99,1.287a1.2,1.2,0,0,0,.693.693,5.337,5.337,0,0,0,1.584,1.386c.693.495,1.485,1.188,2.178,1.683a14.332,14.332,0,0,1,1.782,1.683h.3c.4,0,.99.693,1.584.891.3.2.4.3.594.3.4-.4.99-.4,1.584-.594,1.089-.1,1.188-1.287,2.079-1.584a8.256,8.256,0,0,1,1.584-2.079c.3-.891,1.089-1.98.99-2.673.4-.891.693-1.782,1.089-2.673-.4-.4.495-.495.2-.99.2-.3.1-.891.495-1.089h-.1v-.4h.1v.1c.3-.2-.2-.3,0-.3h.1c-.1-.3.2-.3.3-.495.495-2.376,1.584-4.553,1.089-7.028-.2-.4-.693-.2-.693-.693a1.539,1.539,0,0,1-.792-.594c-.3-.1-.594-.1-.594-.4a16.916,16.916,0,0,0-3.068-.3c-.594,0-1.287.594-1.881.594A6.76,6.76,0,0,0,70.562,98.7c-.495.1-.693.792-1.089.2-.4-.2-.495.3-.693,0,0-.2,0-.495-.3-.594-.1-.3.2-.594.1-1.089-.4-.4.3-.792-.2-1.089.3,0,.2-.3.3-.4.1-.3,0-1.188.4-1.386a2.564,2.564,0,0,1,1.782-2.277c.1-.1,0-.2,0-.3a4.261,4.261,0,0,1,2.673-.3c.792.2,1.98.2,2.277.99.693-.1.594.99,1.287.693a6.361,6.361,0,0,0,1.683,1.287c.693.3.891,1.089,1.386,1.584.1-.1.3,0,.4.1.594-.891-.1-2.079.4-2.969a3.4,3.4,0,0,1,.1-1.386c-.3.1-.1-.594,0-.693s0-.3,0-.4a1.266,1.266,0,0,0-.99.99,1.653,1.653,0,0,1-1.287.693c-.2-.3-.693-.4-.4-.891.4.2.3-.4.4-.495.594-.693,1.287-2.079,2.574-1.683.495.4.495,1.089.594,1.683" transform="translate(-0.582 -0.908)"/><path class="d" d="M62.784,92.3c.4-.1.594.4.891.4a25.342,25.342,0,0,1,1.98,2.574c.4,0,.3.594.594.792a3.841,3.841,0,0,1,.594,1.089h-.1c.495.2.594.792.891,1.188,0,.495.4,1.089.1,1.485-.2.3-.693.1-.99.1a3.815,3.815,0,0,1-1.782-.594c-.4.2-.4-.3-.693-.3a13.382,13.382,0,0,0-2.87-.495h-.3a2.358,2.358,0,0,0-1.782.495v-.1l-1.089.3c-.891.792-.792,1.98-1.287,2.969-.3.2-.3-.4-.594-.3a10.665,10.665,0,0,1-1.188-2.376l.3-.3c0-.1-.1,0-.2-.1,0-.1.1-.4-.1-.495-.594.1,0-.594-.4-.693.4-.1-.1-.792.4-.891-.1-.495.4-.4.3-.891.495-.2.4-.99.891-1.188,0-.594.693-.495.792-.99.891-.4,1.287-1.089,2.277-1.386v-.1c.1,0,.3.1.4-.1v-.1c.495,0,.792-.4,1.287-.4a1.655,1.655,0,0,1,1.188.1c-.1,0,.2.3.495.3m14.154,6.038a4.031,4.031,0,0,1,1.386,1.188c-.3.792.4,1.089.2,1.881-.2.3-.1.792-.1,1.188a5.666,5.666,0,0,0-.792,2.277c-.4.3-.693.891-1.287.693-.4.495-1.089.3-1.584.594-.2-.4-.4.1-.693,0H72.682a6.278,6.278,0,0,1-2.673-3.068,23.244,23.244,0,0,1,.1-2.673c.792-.1.99-1.089,1.881-1.188-.1-.4.4-.1.495-.3a6.133,6.133,0,0,1,3.266-1.089c.2.3.792.2,1.188.495m-24.251.693v.3h.1c0,.594.693.594.891.99.1,0-.1.4.2.4,0,.99.891.99.792,1.98h.1c-.1.99,1.188,1.98,0,2.673a3.061,3.061,0,0,1-.792.2,2.964,2.964,0,0,1-.4-.99l.1-.891c.4-.2-.3-.2,0-.594.2.1.1-.1.1-.3v-.2h-.1c.1-.693-.4-1.188-.693-1.683,0-.3-.495-.4-.4-.792a2.524,2.524,0,0,1-.792-1.188c-.3-.1-.3-.495-.3-.792.594-.1.792.594,1.188.891" transform="translate(-0.524 -0.934)"/><path class="c" d="M76.843,100.093c.1-.2.3.1.4.1.1.3.495.495.792.693.1.495-.594.495-.495.891-.1.594-.2,1.98-1.089,2.079-.792-.4-.792.693-1.386.594l-.1.1c-.792,0-1.485.2-2.178-.3-.3-.792-1.683-.891-1.485-2.079.3-.693.99-1.188,1.287-1.881.495-.1.99-.495,1.485-.594.4-.4,1.188-.2,1.683-.3a1.623,1.623,0,0,1,1.089.693" transform="translate(-0.725 -1.011)"/><path class="d" d="M64.839,101.1c.3-.4.3.3.693.2a3.326,3.326,0,0,1,1.386.495c.3.495.594,1.386.99,2.079-.1,1.485-.495,2.771-1.782,3.365-.792-.1-.4.99-1.188.693-.2.99-1.089.3-1.584.792-.792.2-.792-.594-1.584-.495,0-.3-.4-.2-.4-.495-.693-.3-.891-.99-1.485-1.485,0-.891-.891-1.485-.594-2.277-.3-.1-.594-.693-.3-.99.4-.3,1.089-.594.792-1.287.2.1.1-.2.2-.3.594,0,.891-.495,1.485-.693,1.188.3,2.277-.1,3.365.4m11.482.2c0,.693.4,1.089.1,1.683a4.255,4.255,0,0,1-1.188.2c-.2-.594.2-1.089-.2-1.584.1-.891.99-.693,1.287-.3" transform="translate(-0.599 -1.025)"/><path class="c" d="M62.48,102.3c.4.1.792,0,1.188.1l.3-.2c.2.495.693.1.792.594.495-.1.693.4,1.089.495.495,0,.4.693.693.891.3.693-.2,1.287.1,1.782-.693.792-2.079.99-2.969,1.485-1.386,0-2.376-1.287-2.87-2.277-.3-.2-.3-.99-.3-1.287a8.97,8.97,0,0,1,1.089-1.584c.4,0,.495-.2.891,0" transform="translate(-0.616 -1.04)"/><path class="d" d="M65.482,104.292c.1.3.4.594.2.99-.4,0-.693.594-1.188.594h-.1c.2-.4-.4-.792-.3-1.287-.2-.1-.495-.495-.3-.693.2-.1.1-.3.4-.3.693-.3.891.3,1.287.693m5.048,2.772c.693.4,1.98.594,2.772,1.287.4.3,1.386.693,1.881.99a2.721,2.721,0,0,1-1.881,1.98.712.712,0,0,0-.693.4c-.2,0-.693-.1-.792.3h-.99c-.3.792-1.386.2-2.079.3a7.434,7.434,0,0,1-1.782-.693c-.594,0-.3-.693-.891-.891l-.4-.1c0-.495.3-.495.594-.891v.1a6.514,6.514,0,0,0,1.485-1.386c.3-.4.594-1.287,1.188-1.287a.945.945,0,0,1,1.287-.4Z" transform="translate(-0.649 -1.053)"/><path class="c" d="M72.245,109.092c.3.4,1.485,0,1.287.891a3.217,3.217,0,0,1-1.683.693c-.4-.1-.3-.792-.693-.99,0-.594-.4-.891-.2-1.386.495.2.99.2,1.287.792m-2.87-.1c0,.1-.2.2-.2.3-.2.2.1.693.2.891h-.1c0,.4.3.3.3.792v.3h.2v.1c-.2-.3-.3.1-.693,0a10.1,10.1,0,0,1-2.178-.891c.3-.1.3-.594.693-.594a8.548,8.548,0,0,1,1.584-.99Z" transform="translate(-0.681 -1.102)"/><path class="d" d="M57.5,112.9c.594.2,1.386.495,1.386,1.188.891.4.99,1.287,1.683,1.98a7.6,7.6,0,0,1-1.188,2.771c-.495.99-.891,1.584-1.287,2.574-.792,1.386-1.089,2.277-1.881,3.662a5.676,5.676,0,0,0-.99,1.881,1.474,1.474,0,0,0-.4.891,11.913,11.913,0,0,0-1.089,2.277c0,.891-.792,1.386-1.089,2.178l-.3.891a.1.1,0,0,0-.1.1l.1.3c-.4,0-.4.4-.594.594.1.3-.3.2-.2.495-.2,1.089-.693,2.178-.99,3.266.1,1.089-.495,1.782-.4,2.771-.4.2,0,.792-.4,1.089.1,1.188-.693,2.079-.594,3.464-.2.2,0,.594-.3.792l-.2.495-.495-.495c.2-.3-.3-.4.1-.594a20.9,20.9,0,0,0,.4-3.761,2.541,2.541,0,0,1,.495-1.188c.1-.4-.495-.594,0-.891-.1-.4.3-.99.3-1.584,0-.4.3-.891.3-1.485.3-.1.2-.792.3-1.188,0-.4.495-.495.2-.891.3-.4.2-.99.495-1.485-.1,0-.2-.2-.1-.4h.1c.4-.594-.1-1.683.693-2.079-.2-.99.594-1.98.792-2.87-.2-.4.2-.594.1-.99.4-.1.2-.792.495-1.089,0-.594.495-.99.4-1.584.2.1.1-.2.1-.3v-.2h.2c.1-.99.594-2.178.693-3.167.2-.3.1-.891.495-1.089,0-.4.4-.594.1-.99a31.833,31.833,0,0,1,1.188-3.662c-.2-.693.792-.594.4-1.188.495-.2.693-1.485,1.089-.495m16.53.3c-.3.99-1.386,1.287-1.98,1.98-.4.594-1.287.4-1.98.693-.792-.1-1.386.3-2.079-.3-.3-.3-1.089-.3-.99-.891h-.1c.1-.3-.1-.3-.2-.495l.3-.495c.99,0,1.485.693,2.277.891.99.3,1.089-.594,2.079-.3.1-.693.891-.693,1.386-.99.3,0,.693-.1.792-.4.2-.1.594.1.495.3M55.425,180.3c.3.1-.1.495,0,.792a4.158,4.158,0,0,1-1.287,1.782c-.1.495-.594.792-.99,1.089-.792-.3-1.386.2-1.98-.3l-.594-.2c.2-.3,0-.594,0-.792.1.1.3-.1.2-.3v-.1c.693-.1.99.693,1.683.3.594-.693,1.188-1.287,1.881-1.98a3.149,3.149,0,0,0,.891-.3c.1-.2,0,.2.2,0" transform="translate(-0.49 -1.145)"/><path class="d" d="M55.729,184.594c.1.891-.99.693-.99,1.584-.594.1-.693.594-1.287.693l.1.3c-.594-.2-.891.693-1.287,0-.495,0-.693-.4-1.089-.594l-.4-.495-.2.1c.1,0,.1-.2.1-.3-.495,0-.3-.693-.891-.594.1-.2.495,0,.4-.4,0,.3.2.3.4.495.594-.2.99.495,1.584.2v-.1l.2.2c1.089-.4,1.386-1.386,2.673-1.683Zm-5.741,2.574c.792.2,1.089.792,1.98.891.4.495-.2.693-.2,1.089h-.495c-.1,0,.1-.495-.3-.3.1-.3-.3-.2-.3-.4-.495.3-.693-.3-1.089-.3-.1-.1-.3-.4-.4-.495.1,0,.1.1.2,0l.1-.1c-.2-.1-.693-.1-.693-.495.2,0,.2-.2.3-.3.3.2.693-.2.891.4m88.787,10.492a2.548,2.548,0,0,0,2.277.3c.2-.2.594-.1.891-.1,0,.2.3.1.4.1,0-.3.1.1.2,0v.3c-.4,0-.4.99-.792.495a1.489,1.489,0,0,1-1.089.4v.1a4.828,4.828,0,0,1-2.376-.4,1.222,1.222,0,0,0-.792-.4,1.2,1.2,0,0,0-.693-.693c-.2-.495.4-.3.594-.594.3.1.2-.3.495-.2.1.693.594.4.891.693m1.881,2.673a.1.1,0,0,0,.1.1c.3-.3.594.1.99,0a4.648,4.648,0,0,0,.594.891c-.1.3-.594.495-.891.693-.3-.495-.99-.4-1.485-.594a4.15,4.15,0,0,0-1.584-.4c-.2-.4-.99-.4-1.089-.99.1-.2.4-.4.4-.693a7.035,7.035,0,0,0,2.969.99m-3.068.594.3-.1c-.2.4.4.4.495.594a2.36,2.36,0,0,0,1.98.891c.3,0,.1.4.4.3,0,.4.2.99-.4.99a2.053,2.053,0,0,1-1.881-.693c-.495-.1-.4-.693-.99-.693-.2.2.1-.2-.2-.1,0-.4-.3-.792.1-1.188.2.1.2-.1.3-.2-.2.1-.2.2-.1.2m-38.306,9.6a10.663,10.663,0,0,1-1.98,3.266h-.1a10.747,10.747,0,0,1,.792-2.772c.2-.2-.1-.99.495-.891l.3-.495a.675.675,0,0,1,.495.891m-4.355.3c0,.693-.594,1.089-.495,1.881-.3,0-.594-.1-.594-.3.4-.4-.3-1.386.4-1.881a.579.579,0,0,0,.693.3m1.881.2H97c-.3.693-.1,1.584-.594,2.178v.4c-.495.1-.1,1.089-.693.99-.1.1-.2.2-.1.4-.3,0-.594-.4-.792-.1a6.462,6.462,0,0,1,.594-2.376c0-.495.4-.99.3-1.584.3.1.891-.594,1.089.1" transform="translate(-0.497 -1.872)"/><path class="c" d="M88.739,22.781l-.1-.792c0-.3-.2-.4-.3-.693-.3.1-.4-.1-.4-.3-.3,0-.4-.1-.594.1-.4-.1-.594.3-.99.2v-.1l-.594.4a3.806,3.806,0,0,1-.891.891c-.1.1-.1.2-.2.4l-.99.792-.594.594-.1.792-.2.891.4.594.4.3.693.1,1.188-.495.891-.693.2-.4Z" transform="translate(-0.843 -0.213)"/><path class="d" d="M87.562,23.986l-.4-.3-.1.1c-.1-.1-.2,0-.2-.1-.1.1,0,.3-.1.4l-.1-.1a2.156,2.156,0,0,0-.693.891l-.693.693-.693.594-.495-.3-.2-.3.495-.792.891-.891a5.972,5.972,0,0,1,.792-.792c.495.1.2-.4.693-.3.4-.2,1.584-.4,1.386.693l-.2.2-.2.594-.2-.3Z" transform="translate(-0.854 -0.23)"/><path class="c" d="M89.753,27.351a7.381,7.381,0,0,0,.693-1.188c.2-.594.2-1.287.3-1.386a2.308,2.308,0,0,0-.2-1.089l-.3-.1c0-.3-.2-.4-.3-.693-.3.1-.4-.1-.4-.3-.3,0-.4-.1-.594.2-.4-.1-.594.3-.99.2v-.1l-.594.4c-.2.3.3-.1,0,.2-.1.1-.1.2-.2.3l-.99.792-.594.594-.2.792-.2.792.4.594.4.3.693.1,1.188-.495v.1l.792-.891s.594,1.485,1.089.891" transform="translate(-0.867 -0.23)"/><path class="d" d="M89.072,25.585l-.4-.3-.1.1c-.1-.1-.2,0-.2-.1-.1.1,0,.3-.1.4l-.1-.1a2.155,2.155,0,0,0-.693.891h.2l-.693.4-.495-.3-.2-.3.495-.792.891-.891c.2-.3-.4.3-.1,0,.495.1.2-.4.693-.3.1-.1,1.683-.594,1.584.495v.1a1.045,1.045,0,0,1,0,.594c-.495,1.386-.495.2-.495.2l-.3-.1Z" transform="translate(-0.878 -0.245)"/></g></svg>